<?xml version="1.0" standalone="no"?>
<!DOCTYPE svg PUBLIC "-//W3C//DTD SVG 20010904//EN"
 "http://www.w3.org/TR/2001/REC-SVG-20010904/DTD/svg10.dtd">
<svg version="1.0" xmlns="http://www.w3.org/2000/svg"
 width="512.000000pt" height="512.000000pt" viewBox="0 0 512.000000 512.000000"
 preserveAspectRatio="xMidYMid meet">

<g transform="translate(0.000000,512.000000) scale(0.100000,-0.100000)"
fill="#000000" stroke="none">
<path d="M841 4624 c-169 -45 -301 -180 -346 -351 -23 -86 -23 -3340 0 -3426
46 -178 193 -320 367 -356 37 -8 318 -11 905 -9 842 3 852 3 879 24 53 39 69
71 69 134 0 63 -16 95 -69 134 -27 21 -38 21 -886 26 -848 5 -859 5 -886 26
-15 11 -37 33 -48 48 l-21 27 0 1659 0 1659 21 27 c11 15 33 37 48 48 l27 21
1659 0 1659 0 27 -21 c15 -11 37 -33 48 -48 21 -27 21 -38 26 -886 5 -848 5
-859 26 -886 39 -53 71 -69 134 -69 63 0 95 16 134 69 21 27 21 37 24 879 2
587 -1 868 -9 905 -36 174 -178 321 -356 367 -85 22 -3349 21 -3432 -1z"/>
<path d="M1409 3547 c-49 -32 -83 -105 -74 -158 9 -53 64 -115 113 -129 50
-13 2174 -14 2221 0 47 13 99 66 112 112 18 68 -19 151 -81 183 -25 13 -179
15 -1143 15 l-1114 0 -34 -23z"/>
<path d="M1416 2697 c-109 -61 -106 -221 5 -277 36 -19 60 -20 499 -20 439 0
463 1 499 20 113 57 113 223 0 280 -36 19 -60 20 -501 20 -461 0 -463 0 -502
-23z"/>
<path d="M3305 2499 c-518 -74 -831 -621 -629 -1101 92 -219 274 -383 509
-458 106 -34 292 -39 407 -11 100 24 200 66 267 114 25 18 51 36 57 40 7 4
113 -74 249 -183 253 -203 283 -219 353 -201 52 15 79 36 103 83 25 49 22 116
-8 157 -15 21 -385 327 -467 386 -18 13 -18 16 7 77 13 35 33 98 42 142 24
107 17 291 -15 391 -99 310 -353 525 -670 564 -95 12 -119 12 -205 0z m263
-340 c114 -39 227 -138 276 -243 88 -185 51 -403 -93 -547 -115 -115 -290
-165 -448 -129 -129 30 -263 139 -321 261 -157 330 104 711 468 682 36 -3 89
-13 118 -24z"/>
</g>
</svg>
