<?xml version="1.0" standalone="no"?>
<!DOCTYPE svg PUBLIC "-//W3C//DTD SVG 20010904//EN"
 "http://www.w3.org/TR/2001/REC-SVG-20010904/DTD/svg10.dtd">
<svg version="1.0" xmlns="http://www.w3.org/2000/svg"
 width="512.000000pt" height="512.000000pt" viewBox="0 0 512.000000 512.000000"
 preserveAspectRatio="xMidYMid meet">

<g transform="translate(0.000000,512.000000) scale(0.100000,-0.100000)"
fill="#000000" stroke="none">
<path d="M885 4791 c-90 -22 -172 -90 -215 -176 l-25 -50 0 -2005 0 -2005 23
-45 c35 -72 75 -114 144 -151 l63 -34 677 -3 677 -3 10 38 c6 21 50 200 100
397 l89 359 646 646 c392 392 670 662 706 686 l59 40 1 518 0 517 -428 0
c-461 0 -488 3 -591 55 -71 35 -163 125 -199 193 -60 112 -62 133 -62 604 l0
428 -822 -1 c-453 -1 -836 -4 -853 -8z m1281 -1137 c53 -39 69 -71 69 -134 0
-63 -16 -95 -69 -134 -26 -20 -42 -21 -384 -24 -234 -2 -370 1 -394 8 -101 29
-140 168 -71 251 50 58 53 59 455 56 353 -2 368 -3 394 -23z m960 -640 c53
-39 69 -71 69 -134 0 -63 -16 -95 -69 -134 -27 -21 -37 -21 -864 -24 -569 -2
-849 0 -874 8 -101 29 -140 168 -71 251 52 61 10 59 935 56 838 -2 847 -2 874
-23z m-160 -640 c53 -39 69 -71 69 -134 0 -63 -16 -95 -69 -134 -27 -21 -38
-21 -784 -24 -513 -2 -769 0 -794 8 -101 29 -140 168 -71 251 52 61 17 59 855
56 757 -2 767 -2 794 -23z m-640 -640 c53 -39 69 -71 69 -134 0 -63 -16 -95
-69 -134 -27 -20 -41 -21 -464 -24 -290 -2 -449 0 -474 8 -101 29 -140 168
-71 251 50 59 46 59 535 56 434 -2 447 -3 474 -23z"/>
<path d="M2880 4387 c0 -330 3 -424 14 -450 17 -42 68 -85 109 -92 18 -3 213
-4 435 -3 l402 3 -480 480 -480 480 0 -418z"/>
<path d="M4033 2222 c-28 -10 -69 -31 -90 -47 -54 -41 -223 -207 -223 -219 0
-6 106 -117 235 -246 l235 -235 115 115 c147 146 170 189 170 310 0 102 -28
173 -95 240 -87 87 -235 122 -347 82z"/>
<path d="M3098 1343 l-377 -378 -80 -320 c-44 -176 -79 -321 -78 -322 1 -1
144 34 316 77 l314 78 386 386 386 386 -235 235 c-129 129 -239 235 -245 235
-6 0 -180 -170 -387 -377z"/>
</g>
</svg>
