<?xml version="1.0" standalone="no"?>
<!DOCTYPE svg PUBLIC "-//W3C//DTD SVG 20010904//EN"
 "http://www.w3.org/TR/2001/REC-SVG-20010904/DTD/svg10.dtd">
<svg version="1.0" xmlns="http://www.w3.org/2000/svg"
 width="512.000000pt" height="512.000000pt" viewBox="0 0 512.000000 512.000000"
 preserveAspectRatio="xMidYMid meet">

<g transform="translate(0.000000,512.000000) scale(0.100000,-0.100000)"
fill="#000000" stroke="none">
<path d="M1290 4773 c-40 -21 -63 -42 -85 -78 l-30 -48 0 -166 c0 -163 0 -167
28 -213 71 -121 234 -142 332 -43 58 58 68 100 63 282 -3 144 -4 151 -31 191
-39 60 -94 93 -164 99 -50 4 -65 1 -113 -24z"/>
<path d="M3662 4789 c-49 -15 -118 -89 -132 -140 -7 -26 -10 -100 -8 -194 3
-146 4 -153 31 -193 39 -60 94 -93 164 -99 80 -7 154 31 198 102 l30 48 0 166
c0 163 0 167 -28 213 -49 84 -160 126 -255 97z"/>
<path d="M740 4464 c-116 -31 -214 -115 -271 -229 l-34 -70 -3 -377 -3 -378
2131 0 2130 0 0 358 c0 288 -3 368 -15 408 -22 75 -86 166 -149 214 -81 61
-143 82 -262 88 l-101 5 -5 -104 c-6 -122 -27 -184 -88 -265 -49 -65 -140
-128 -219 -150 -86 -26 -210 -16 -291 22 -95 45 -162 110 -207 202 -35 71 -38
82 -42 184 l-3 108 -748 0 -748 0 -4 -107 c-3 -96 -7 -116 -35 -175 -44 -93
-109 -160 -200 -205 -65 -32 -86 -37 -163 -41 -66 -3 -103 0 -145 14 -124 39
-231 138 -277 256 -14 36 -22 86 -26 156 l-5 102 -81 -1 c-44 0 -106 -7 -136
-15z"/>
<path d="M432 1917 l3 -1282 34 -70 c38 -76 103 -148 171 -188 103 -60 -1 -57
1920 -57 1921 0 1817 -3 1920 57 69 41 134 112 171 189 l34 69 3 1283 2 1282
-2130 0 -2130 0 2 -1283z m1116 741 c33 -8 60 -25 93 -58 61 -61 72 -110 68
-285 -4 -116 -7 -135 -29 -175 -14 -24 -45 -58 -68 -75 l-44 -30 -182 0 -183
0 -39 27 c-21 15 -50 44 -64 65 -24 34 -25 45 -28 197 -2 98 1 175 7 198 20
65 75 116 151 139 40 12 267 10 318 -3z m1227 -23 c36 -22 57 -45 77 -84 27
-52 28 -58 28 -205 0 -167 -10 -206 -66 -258 -54 -50 -89 -58 -259 -58 -171 0
-201 8 -257 67 -49 52 -58 89 -58 251 0 140 1 151 26 201 28 56 78 97 136 112
18 4 99 7 179 6 143 -2 147 -3 194 -32z m1161 8 c51 -27 90 -72 105 -121 6
-23 9 -100 7 -198 -3 -152 -4 -163 -28 -197 -14 -21 -43 -50 -64 -65 -38 -26
-43 -27 -200 -30 -175 -4 -217 3 -266 45 -61 50 -74 93 -78 245 -5 177 9 229
73 286 25 22 62 45 83 51 20 5 102 9 182 8 127 -2 150 -5 186 -24z m-2358
-1168 c47 -20 79 -50 105 -100 18 -33 22 -62 25 -170 6 -176 -6 -224 -68 -285
-61 -62 -109 -74 -285 -68 -144 4 -188 19 -238 78 -42 49 -49 90 -45 267 3
161 3 161 33 204 17 23 50 53 74 66 41 21 56 23 203 23 121 0 168 -4 196 -15z
m1180 -4 c20 -11 49 -32 64 -48 49 -52 58 -89 58 -252 0 -143 -1 -151 -28
-202 -20 -39 -41 -62 -77 -84 l-48 -30 -167 0 -167 0 -48 30 c-36 22 -57 45
-77 84 -27 52 -28 58 -28 205 0 167 11 206 66 257 59 54 77 58 252 59 141 0
168 -3 200 -19z m1198 -13 c21 -15 50 -44 64 -65 24 -36 25 -41 25 -219 l0
-182 -30 -44 c-17 -23 -51 -54 -75 -68 -40 -22 -59 -25 -175 -29 -176 -4 -224
7 -285 69 -62 61 -74 109 -68 285 4 139 17 183 70 232 50 47 81 53 264 50 168
-2 171 -2 210 -29z"/>
</g>
</svg>
